<?xml version="1.0" encoding="utf-8"?>
<!-- Generator: Adobe Illustrator 15.1.0, SVG Export Plug-In . SVG Version: 6.00 Build 0)  -->
<!DOCTYPE svg PUBLIC "-//W3C//DTD SVG 1.1//EN" "http://www.w3.org/Graphics/SVG/1.1/DTD/svg11.dtd">
<svg version="1.1" id="Layer_1" xmlns="http://www.w3.org/2000/svg" xmlns:xlink="http://www.w3.org/1999/xlink" x="0px" y="0px"
	 width="162.83px" height="139.224px" viewBox="0 0 162.83 139.224" enable-background="new 0 0 162.83 139.224"
	 xml:space="preserve">
<g>
	<defs>
		<rect id="SVGID_1_" width="162.83" height="139.224"/>
	</defs>
	<clipPath id="SVGID_2_">
		<use xlink:href="#SVGID_1_"  overflow="visible"/>
	</clipPath>
	<path clip-path="url(#SVGID_2_)" fill="#232323" d="M0.513,103.792c3.921-2.956,8.796-4.714,14.072-4.714
		c5.017,0,9.664,1.591,13.476,4.288V48.494l15.41,16.367c2.603,2.763,6.231,4.33,10.027,4.33c3.797,0,7.426-1.567,10.029-4.33
		l28.537-30.313l38.101,40.466l-35.043,37.41c-5.199,5.553-4.914,14.268,0.639,19.467c5.552,5.2,14.265,4.918,19.467-0.636
		l43.882-46.851c4.973-5.306,4.96-13.562-0.022-18.856L102.092,5.016c-2.604-2.763-6.231-4.332-10.028-4.332
		c-3.796,0-7.424,1.569-10.027,4.332l-28.539,30.31L24.316,4.333c-3.867-4.111-9.859-5.443-15.108-3.36
		c-5.247,2.081-8.695,7.156-8.695,12.8"/>
	<path clip-path="url(#SVGID_2_)" fill="#E93F3C" d="M0,124.958c0-7.882,6.387-14.268,14.267-14.268s14.266,6.386,14.266,14.268
		c0,7.88-6.386,14.267-14.266,14.267S0,132.837,0,124.958"/>
</g>
</svg>
